<svg width="60" height="60" viewBox="0 0 60 60" fill="none" xmlns="http://www.w3.org/2000/svg">
<path d="M45.75 14.275C44.775 13.3 43.2 13.3 42.225 14.275L30 26.475L17.775 14.25C16.8 13.275 15.225 13.275 14.25 14.25C13.275 15.225 13.275 16.8 14.25 17.775L26.475 30L14.25 42.225C13.275 43.2 13.275 44.775 14.25 45.75C15.225 46.725 16.8 46.725 17.775 45.75L30 33.525L42.225 45.75C43.2 46.725 44.775 46.725 45.75 45.75C46.725 44.775 46.725 43.2 45.75 42.225L33.525 30L45.75 17.775C46.7001 16.825 46.7001 15.225 45.75 14.275Z" fill="black"/>
</svg>
