<svg width="24" height="24" viewBox="0 0 24 24" fill="none" xmlns="http://www.w3.org/2000/svg">
<path d="M15.63 14.4L13.11 16.9C10.61 15.47 8.54002 13.4 7.11002 10.9L9.61002 8.38C9.84002 8.14 9.94002 7.81 9.88002 7.48L9.13002 3.8C9.04002 3.34 8.63002 3 8.15002 3H4.00002C3.44002 3 2.97002 3.47 3.00002 4.03C3.17002 6.92 4.05002 9.63 5.43002 12C7.01002 14.73 9.28002 16.99 12 18.57C14.37 19.94 17.08 20.83 19.97 21C20.53 21.03 21 20.56 21 20V15.85C21 15.37 20.66 14.96 20.2 14.87L16.53 14.14C16.2 14.07 15.86 14.17 15.63 14.4Z" fill="white"/>
</svg>
